<svg xmlns="http://www.w3.org/2000/svg" width="280" height="319" viewBox="0 0 280 319"><g><g><path fill="#232257" d="M147.723 2.166l62.27 35.994.024-.024 62.438 36.088a15.15 15.15 0 0 1 7.521 13.087H280v144.402c0 5.983-3.475 11.155-8.498 13.61l-61.485 35.565c-.285.143-.57.31-.856.453l-61.652 35.635a15.028 15.028 0 0 1-15.21-.119l-62.27-36.017-.025.048-62.436-36.113C2.735 241.986.046 236.91.046 231.713h-.048V87.31c0-6.007 3.475-11.18 8.522-13.635l61.484-35.54c.286-.167.548-.31.834-.453l61.675-35.66c4.88-2.813 10.688-2.574 15.21.143z"/></g><g><path fill="#fff" d="M203.154 180.179a2.248 2.248 0 0 1 2.243-2.265 2.252 2.252 0 0 1 2.265 2.265v11.985a2.26 2.26 0 0 1-1.966 2.243l-11.985 2.67a71.472 71.472 0 0 1-3.14 9.486 69.628 69.628 0 0 1-4.508 8.909l6.708 10.575a2.256 2.256 0 0 1-.299 2.799l-16.963 16.963c-.769.79-2.008.876-2.884.256l-10.468-6.665c-2.885 1.709-5.854 3.226-8.93 4.486a64.946 64.946 0 0 1-9.486 3.14l-2.714 12.2a2.276 2.276 0 0 1-2.2 1.773h-23.97c-1.154 0-2.115-.855-2.244-1.966l-2.67-12.006a64.946 64.946 0 0 1-9.486-3.14 67.102 67.102 0 0 1-8.93-4.487l-10.554 6.708a2.283 2.283 0 0 1-2.82-.3l-16.942-16.962a2.244 2.244 0 0 1-.256-2.884l6.644-10.49a69.775 69.775 0 0 1-4.486-8.93 70.183 70.183 0 0 1-3.14-9.464l-12.2-2.714a2.256 2.256 0 0 1-1.751-2.2H46v-23.992c0-1.132.855-2.094 1.966-2.243l12.006-2.67a67.309 67.309 0 0 1 3.14-9.465 69.793 69.793 0 0 1 4.487-8.93l-6.708-10.575a2.231 2.231 0 0 1 .32-2.799l16.942-16.963a2.325 2.325 0 0 1 2.906-.256l10.468 6.665a67.12 67.12 0 0 1 8.93-4.486 67.59 67.59 0 0 1 9.486-3.14l2.713-12.2a2.258 2.258 0 0 1 2.2-1.773h11.986a2.266 2.266 0 0 1 2.264 2.265 2.28 2.28 0 0 1-2.264 2.264h-10.19l-2.586 11.665a2.284 2.284 0 0 1-1.73 1.837 64.58 64.58 0 0 0-10.148 3.248 61.73 61.73 0 0 0-9.315 4.785 2.286 2.286 0 0 1-2.585.107l-10.212-6.495-14.4 14.4 6.495 10.212a2.25 2.25 0 0 1 0 2.393 65.327 65.327 0 0 0-4.892 9.507 64.587 64.587 0 0 0-3.247 10.147 2.26 2.26 0 0 1-1.71 1.688l-11.793 2.628v20.36l11.665 2.606c.876.129 1.624.79 1.838 1.73a65.06 65.06 0 0 0 3.247 10.127 66.172 66.172 0 0 0 4.785 9.336 2.25 2.25 0 0 1 .107 2.564l-6.494 10.212 14.399 14.4 10.212-6.495v.021a2.249 2.249 0 0 1 2.393-.021c2.99 1.88 6.174 3.504 9.507 4.892a60.409 60.409 0 0 0 10.148 3.248 2.26 2.26 0 0 1 1.687 1.709l2.628 11.793h20.36l2.607-11.644a2.282 2.282 0 0 1 1.73-1.858c3.482-.79 6.88-1.88 10.148-3.248a63.652 63.652 0 0 0 9.315-4.764c.726-.577 1.752-.641 2.585-.128l10.212 6.494 14.378-14.399-6.495-10.212h.021a2.248 2.248 0 0 1-.021-2.393 62.106 62.106 0 0 0 4.892-9.485 61.7 61.7 0 0 0 3.248-10.148h.021a2.224 2.224 0 0 1 1.71-1.71l11.792-2.627zm2.265-78.577a14.402 14.402 0 0 1 4.23 10.212c0 3.973-1.624 7.584-4.23 10.212-2.628 2.606-6.239 4.23-10.212 4.23a14.402 14.402 0 0 1-10.212-4.23 14.388 14.388 0 0 1-4.23-10.212c0-3.995 1.602-7.606 4.23-10.212a14.332 14.332 0 0 1 10.212-4.252c3.973 0 7.584 1.624 10.212 4.252zm-10.212.277a9.932 9.932 0 0 0-7.03 2.906 9.895 9.895 0 0 0-2.905 7.029 9.882 9.882 0 0 0 2.906 7.007 9.932 9.932 0 0 0 7.029 2.906 9.882 9.882 0 0 0 7.007-2.906 9.882 9.882 0 0 0 2.906-7.007 9.895 9.895 0 0 0-2.906-7.03 9.882 9.882 0 0 0-7.007-2.905zm0 52.727a2.252 2.252 0 0 1-2.265-2.265 2.266 2.266 0 0 1 2.265-2.264h1.922l.983-4.679a2.272 2.272 0 0 1 1.88-1.795 31.398 31.398 0 0 0 7.499-2.072c2.457-1.025 4.743-2.307 6.815-3.867a2.276 2.276 0 0 1 2.692 0l3.91 2.585 2.734-2.756-2.649-3.995a2.248 2.248 0 0 1 .085-2.585 31.83 31.83 0 0 0 3.846-6.815 31.69 31.69 0 0 0 2.072-7.499 2.265 2.265 0 0 1 1.945-1.922l4.55-.94v-3.868l-4.7-.96a2.247 2.247 0 0 1-1.773-1.88h-.022a31.58 31.58 0 0 0-2.072-7.521 32.348 32.348 0 0 0-3.846-6.815 2.211 2.211 0 0 1 0-2.67l2.564-3.91-2.734-2.756-4.017 2.649a2.284 2.284 0 0 1-2.585-.064 31.376 31.376 0 0 0-6.794-3.867 31.57 31.57 0 0 0-7.52-2.072 2.265 2.265 0 0 1-1.922-1.923l-.94-4.55h-3.867l-.962 4.678a2.272 2.272 0 0 1-1.88 1.795 31.569 31.569 0 0 0-7.52 2.072 33.41 33.41 0 0 0-6.815 3.867 2.243 2.243 0 0 1-2.67 0l-3.91-2.585-2.735 2.756 2.628 3.995c.534.812.47 1.858-.064 2.585a32.359 32.359 0 0 0-3.846 6.815 31.61 31.61 0 0 0-2.093 7.52 2.266 2.266 0 0 1-1.923 1.902l-4.55.94v1.944a2.248 2.248 0 0 1-2.265 2.243c-1.24 0-2.265-1.004-2.265-2.243v-3.782h.021c0-1.046.727-1.987 1.795-2.2l5-1.026a37.061 37.061 0 0 1 2.093-7.029 36.383 36.383 0 0 1 3.504-6.473l-2.714-4.08c-.705-.898-.64-2.2.171-3.013l5.341-5.34a2.285 2.285 0 0 1 2.842-.278l4.251 2.798a37.024 37.024 0 0 1 6.474-3.482 37.134 37.134 0 0 1 7.028-2.115l.983-4.807A2.264 2.264 0 0 1 191.425 69h7.542c1.047 0 1.987.748 2.222 1.816l1.025 4.978a37.4 37.4 0 0 1 7.007 2.115c2.286.961 4.466 2.115 6.474 3.482l4.102-2.692c.876-.705 2.179-.64 3.012.171l5.32 5.341a2.23 2.23 0 0 1 .277 2.82l-2.798 4.273a36.28 36.28 0 0 1 3.482 6.473 35.616 35.616 0 0 1 2.115 7.03l4.807.982a2.246 2.246 0 0 1 1.987 2.243v7.542a2.257 2.257 0 0 1-1.816 2.2l-4.978 1.047a35.848 35.848 0 0 1-2.115 7.007 36.274 36.274 0 0 1-3.482 6.474l2.692 4.102c.705.876.662 2.179-.171 2.99l-5.32 5.342h-.021a2.255 2.255 0 0 1-2.82.278l-4.273-2.8a36.27 36.27 0 0 1-6.474 3.483 36.449 36.449 0 0 1-7.007 2.115l-1.004 4.807a2.264 2.264 0 0 1-2.243 1.987zm-38.648-4.166c7.627 7.606 12.327 18.117 12.327 29.739 0 11.6-4.7 22.111-12.327 29.717-7.605 7.606-18.117 12.327-29.717 12.327-11.622 0-22.133-4.721-29.739-12.327-7.606-7.606-12.306-18.117-12.306-29.717 0-11.622 4.7-22.133 12.306-29.739 7.606-7.606 18.117-12.306 29.739-12.306 11.6 0 22.112 4.7 29.717 12.306zm-29.717-7.798c-10.362 0-19.74 4.209-26.534 11.002a37.374 37.374 0 0 0-11.003 26.535c0 10.361 4.209 19.74 11.003 26.534 6.793 6.772 16.172 10.98 26.534 10.98 10.361 0 19.74-4.208 26.534-10.98 6.794-6.794 10.981-16.173 10.981-26.534 0-10.362-4.187-19.762-10.981-26.535-6.794-6.793-16.173-11.002-26.534-11.002z"/></g></g></svg>