<svg xmlns="http://www.w3.org/2000/svg" width="280" height="319" viewBox="0 0 280 319"><g><g><path fill="#232257" d="M147.723 2.166l62.27 35.994.024-.024 62.437 36.088a15.15 15.15 0 0 1 7.522 13.087H280v144.402c0 5.983-3.475 11.155-8.498 13.61l-61.485 35.565c-.285.143-.57.31-.857.453l-61.65 35.635a15.028 15.028 0 0 1-15.211-.119l-62.27-36.017-.025.048-62.436-36.113C2.735 241.986.046 236.91.046 231.713h-.048V87.31c0-6.007 3.475-11.18 8.522-13.635l61.484-35.54c.286-.167.548-.31.834-.453l61.675-35.66c4.88-2.813 10.688-2.574 15.21.143z"/></g><g><path fill="#fff" d="M198.158 90.868C210.407 103.166 218 120.131 218 138.858c0 37.115-65.94 111.203-66.12 111.423-.78.882-2.118.962-2.977.18a.946.946 0 0 1-.2-.2c-.68-.74-66.1-74.428-66.1-111.402 0-18.728 7.573-35.693 19.822-47.99 12.249-12.279 29.173-19.87 47.876-19.87 18.683 0 35.608 7.591 47.857 19.87zm-96.732 106.416c.999.6 1.339 1.883.74 2.904-9.073 15.483-23.1 31.246-23.14 31.286-.759.881-2.098.962-2.977.18l-.18-.18c-.58-.64-30.872-34.81-30.872-52.276 0-8.973 3.637-17.105 9.512-22.994 5.874-5.889 13.987-9.534 22.939-9.534 1.179 0 2.118.961 2.118 2.123 0 1.182-.94 2.123-2.118 2.123a28.019 28.019 0 0 0-19.942 8.292 28.152 28.152 0 0 0-8.273 19.99c0 13.78 22.06 40.479 28.215 47.67 3.876-4.527 14.027-16.785 21.08-28.823.6-1.001 1.899-1.342 2.898-.761zm-7.393-12.518a2.112 2.112 0 0 1 .819 2.864 20.022 20.022 0 0 1-7.334 7.51 19.818 19.818 0 0 1-10.07 2.745c-5.495 0-10.47-2.223-14.087-5.828a19.98 19.98 0 0 1-5.815-14.121 19.98 19.98 0 0 1 5.815-14.12c3.616-3.606 8.592-5.85 14.087-5.85 1.179 0 2.118.962 2.118 2.124 0 1.181-.94 2.123-2.118 2.123a15.61 15.61 0 0 0-11.09 4.607 15.685 15.685 0 0 0-4.596 11.116c0 4.346 1.758 8.272 4.596 11.116a15.61 15.61 0 0 0 11.09 4.607c2.917 0 5.615-.781 7.933-2.163a15.597 15.597 0 0 0 5.774-5.91 2.125 2.125 0 0 1 2.878-.82zM150.3 75.246c-17.544 0-33.41 7.11-44.879 18.627-11.49 11.517-18.603 27.42-18.603 44.986 0 32.267 53.551 95.4 63.482 106.816 9.911-11.417 63.463-74.55 63.463-106.816 0-17.566-7.114-33.47-18.584-44.986-11.489-11.517-27.355-18.627-44.879-18.627zm-2.118 43.523c0-1.181.94-2.123 2.118-2.123 5.355 0 10.211 2.183 13.728 5.709a19.43 19.43 0 0 1 5.695 13.76 19.443 19.443 0 0 1-5.695 13.78c-3.517 3.525-8.373 5.708-13.728 5.708a19.35 19.35 0 0 1-13.747-5.708 19.443 19.443 0 0 1-5.695-13.78c0-1.162.96-2.104 2.118-2.104 1.179 0 2.118.942 2.118 2.104 0 4.206 1.699 8.031 4.456 10.775a15.093 15.093 0 0 0 10.75 4.467c4.197 0 7.993-1.703 10.75-4.467a15.232 15.232 0 0 0 4.437-10.775c0-4.207-1.699-8.012-4.437-10.776a15.195 15.195 0 0 0-10.75-4.447 2.122 2.122 0 0 1-2.118-2.123zm40.603 15.242a2.1 2.1 0 0 1 2.098 2.104 40.616 40.616 0 0 1-11.889 28.782c-7.333 7.37-17.484 11.917-28.694 11.917-11.21 0-21.36-4.546-28.713-11.917a40.616 40.616 0 0 1-11.89-28.782 40.534 40.534 0 0 1 11.89-28.762c7.353-7.371 17.504-11.918 28.713-11.918a2.1 2.1 0 0 1 2.098 2.103c0 1.182-.939 2.123-2.098 2.123-10.05 0-19.142 4.086-25.716 10.676-6.594 6.61-10.67 15.723-10.67 25.778a36.32 36.32 0 0 0 10.67 25.777c6.574 6.61 15.666 10.696 25.716 10.696 10.031 0 19.123-4.086 25.717-10.696a36.387 36.387 0 0 0 10.65-25.777c0-1.162.94-2.104 2.118-2.104z"/></g></g></svg>