<svg xmlns="http://www.w3.org/2000/svg" width="280" height="319" viewBox="0 0 280 319"><g><g><path fill="#232257" d="M147.723 2.166l62.27 35.994.024-.024 62.438 36.088a15.15 15.15 0 0 1 7.521 13.087H280v144.402c0 5.983-3.475 11.155-8.498 13.61l-61.485 35.565c-.285.143-.57.31-.856.453l-61.652 35.635a15.028 15.028 0 0 1-15.21-.119l-62.27-36.017-.025.048-62.436-36.113C2.735 241.986.046 236.91.046 231.713h-.048V87.31c0-6.007 3.475-11.18 8.522-13.635l61.484-35.54c.286-.167.548-.31.834-.453l61.675-35.66c4.88-2.813 10.688-2.574 15.21.143z"/></g><g><path fill="#fff" d="M216.087 184.637a76.811 76.811 0 0 0 7.762-33.688 2.568 2.568 0 0 1 2.563-2.573 2.573 2.573 0 0 1 2.587 2.573 82.212 82.212 0 0 1-8.25 35.942 82.088 82.088 0 0 1-21.806 27.595l4.768 17.952a2.63 2.63 0 0 1-.073 1.568l-2.27 6.811a2.584 2.584 0 0 1-3.27 1.642c-.88-.294-1.49-1.054-1.685-1.911a9.437 9.437 0 0 1-.22-1.078c-.195-.98-.464-2.279-.586-2.524l-7.372-15.04a82.083 82.083 0 0 1-18.355 7.837 81.264 81.264 0 0 1-22.53 3.185 81.182 81.182 0 0 1-25.581-4.116 81.505 81.505 0 0 1-17.323-8.108l5.313 20.015a2.639 2.639 0 0 1-.659 2.5l-4.003 3.993a2.528 2.528 0 0 1-3.637 0 2.551 2.551 0 0 1 0-3.65l2.93-2.965-6.616-24.967-.049-.122a4.34 4.34 0 0 1 .098-2.499 4.344 4.344 0 0 1 1.465-2.083 191.044 191.044 0 0 0 9.031-7.815c2.954-2.695 5.81-5.44 8.568-8.208l.146-.123 32.392-32.536h.024a4.24 4.24 0 0 1 3.051-1.274c1.025 0 2.05.367 2.856 1.078.073.049.147.122.22.196l17.526 17.591c.17.172.366.392.537.662.122.196.244.392.317.587l17.595 35.872c.05.087.093.176.13.267l5.781 11.785-14.914-56.18a4.594 4.594 0 0 1 0-2.23 4.312 4.312 0 0 1 1.123-1.935l14.67-14.725-4.1-4.116-8.74 8.771a4.42 4.42 0 0 1-2.22 1.2 4.783 4.783 0 0 1-2.124-.122c-.66-.22-1.294-.588-1.782-1.078v-.025c-.586-.563-1-1.323-1.196-2.18l-4.174-15.73c-.195-.784-.195-1.543 0-2.254a4.312 4.312 0 0 1 1.123-1.935l26.777-26.877a2.55 2.55 0 0 1 3.637-.025c1.025 1.005 1.025 2.646.024 3.675l-26.46 26.534 3.76 14.137 9.177-9.212c.586-.612 1.392-.906 2.197-.906.806 0 1.587.294 2.197.906l7.006 7.032c.61.612.903 1.396.903 2.205h-.025a3.16 3.16 0 0 1-.878 2.205l-.147.147-15.646 15.68 9.829 37.004a76.62 76.62 0 0 0 18.608-24.337zm-92.707 39.25c7.664 2.548 15.768 3.847 23.97 3.847 7.176 0 14.28-1.005 21.114-2.965a76.302 76.302 0 0 0 17.493-7.511l-16.59-33.846-16.867-16.93-31.83 31.949-.146.147c-2.856 2.867-5.76 5.684-8.714 8.38a257.555 257.555 0 0 1-8.135 7.062 76.656 76.656 0 0 0 19.705 9.867zM79.687 109.763a2.585 2.585 0 0 1 .976 3.528 76.602 76.602 0 0 0-7.323 18.204c-1.66 6.297-2.49 12.839-2.49 19.454a77.35 77.35 0 0 0 4.883 27.049 77.232 77.232 0 0 0 13.454 22.866 230.64 230.64 0 0 1 7.635-8.901 270.22 270.22 0 0 1 8.52-8.918l31.829-31.95-16.989-17.052c-.708-.735-15.964-8.134-25.361-12.691a606.69 606.69 0 0 1-6.2-3.014 2.607 2.607 0 0 1-1.172-3.454 2.567 2.567 0 0 1 3.466-1.176c1.245.612 3.466 1.69 6.127 2.989 8.885 4.312 22.847 11.074 26.216 13.28.22.122.415.269.61.44l17.38 17.47.146.122a4.326 4.326 0 0 1 1.27 3.087 4.27 4.27 0 0 1-1.27 3.062l-32.416 32.537a275.924 275.924 0 0 0-8.323 8.747 208.468 208.468 0 0 0-7.86 9.163c-.562.686-1.245 1.152-2.026 1.397a4.585 4.585 0 0 1-2.441.073l-24.995-6.688-.415.392 19.918 9.849c.073.024.17.073.293.147 1.537.882 2.074 2.156 2.148 3.332.073 1.029-.244 1.911-.489 2.401l-.122.22-.097.123a70.415 70.415 0 0 0-2.636 4.557c-.513 1.03-.928 1.936-1.245 2.769.83-.319 1.733-.735 2.758-1.25a60.505 60.505 0 0 0 4.394-2.572l.122-.074c.22-.147.439-.27.634-.343a4.252 4.252 0 0 1 3.003-.171 4.55 4.55 0 0 1 2.367 1.813c.122.22.245.44.342.637l5.614 11.466a2.607 2.607 0 0 1-1.171 3.454 2.588 2.588 0 0 1-3.466-1.176l-5.322-10.853c-1.513.955-2.904 1.764-4.174 2.4-1.538.81-2.929 1.422-4.198 1.814l-.122.049c-2.588.808-4.296.808-5.541-.417-1.245-1.274-1.245-3.013-.366-5.684.39-1.274 1-2.67 1.806-4.238.635-1.274 1.44-2.671 2.392-4.165l-22.334-11.05a2.565 2.565 0 0 1-1.172-3.455c.146-.294.317-.539.537-.735l3.954-3.969a2.575 2.575 0 0 1 2.465-.661L81 198.754a82.841 82.841 0 0 1-10.1-18.943 82.533 82.533 0 0 1-5.223-28.862c0-7.007.903-13.99 2.66-20.752a82.215 82.215 0 0 1 7.836-19.43c.683-1.249 2.27-1.69 3.515-1.004zm70.226-38.172a2.568 2.568 0 0 1-2.563 2.573 76.212 76.212 0 0 0-35.296 8.673A76.75 76.75 0 0 0 86.94 103.83l44.762 11.96 15.769-15.827a3.098 3.098 0 0 1 2.197-.906v.024a3.08 3.08 0 0 1 2.172.882h.025l7.005 7.032c.61.612.903 1.396.903 2.205 0 .808-.317 1.617-.903 2.205l-.146.147-9.032 9.065 14.084 3.773 26.436-26.558c2.026-2.034 9.422-8.453 15.89-11.76 4.59-2.353 8.934-3.21 11.644-.49 1.025 1.004 1.025 2.645.024 3.674a2.571 2.571 0 0 1-3.637 0c-.756-.735-3.002.025-5.687 1.421-5.883 2.99-12.693 8.943-14.573 10.83l-26.801 26.877a4.283 4.283 0 0 1-2.075 1.151 4.323 4.323 0 0 1-2.368-.098l-15.646-4.19a4.427 4.427 0 0 1-1.953-1.126 4.39 4.39 0 0 1-1.123-1.96c-.17-.71-.195-1.495 0-2.23a4.296 4.296 0 0 1 1.123-1.96l8.739-8.771-4.101-4.116-14.646 14.724h-.024a4.28 4.28 0 0 1-2.075 1.152 4.256 4.256 0 0 1-2.148-.049L82.09 107.882a2.547 2.547 0 0 1-.273-.073l-11.65-3.117c-1.391-.368-2.197-1.789-1.855-3.161.366-1.372 1.782-2.205 3.149-1.837l10.104 2.7a81.588 81.588 0 0 1 28.121-24.163 81.473 81.473 0 0 1 37.664-9.237c1.416 0 2.563 1.152 2.563 2.597z"/></g></g></svg>