<svg xmlns="http://www.w3.org/2000/svg" width="280" height="319" viewBox="0 0 280 319"><g><g><path fill="#232257" d="M147.723 2.166l62.27 35.994.024-.024 62.438 36.088a15.15 15.15 0 0 1 7.521 13.087H280v144.402c0 5.983-3.475 11.155-8.498 13.61l-61.485 35.565c-.285.143-.57.31-.856.453l-61.652 35.635a15.028 15.028 0 0 1-15.21-.119l-62.27-36.017-.025.048-62.436-36.113C2.735 241.986.046 236.91.046 231.713h-.048V87.31c0-6.007 3.475-11.18 8.522-13.635l61.484-35.54c.286-.167.548-.31.834-.453l61.675-35.66c4.88-2.813 10.688-2.574 15.21.143z"/></g><g><path fill="#fff" d="M184.441 146.819c20.269 6.2 33.592 10.265 33.592 37.254v56.138a2.745 2.745 0 0 1-2.726 2.727 2.745 2.745 0 0 1-2.727-2.727v-56.138c0-22.975-11.78-26.577-29.708-32.083-4.598-1.4-9.577-2.928-14.726-4.834l-19.431 17.621 4.585 59.439 4.031-28.077a2.704 2.704 0 0 1 3.061-2.315c1.492.206 2.52 1.595 2.315 3.087l-7.51 52.485a2.766 2.766 0 0 1-.37 1.01 2.696 2.696 0 0 1-2.128 1.306 2.667 2.667 0 0 1-1.93-.606 2.706 2.706 0 0 1-.998-2.205l-6.56-85.024c-.078-.824.231-1.621.874-2.213l21.598-19.626a2.703 2.703 0 0 1 3.022-.465c5.705 2.172 10.934 3.772 15.736 5.246zM70.008 238.693a2.728 2.728 0 0 1-2.726 2.727 2.712 2.712 0 0 1-2.726-2.727v-54.62c0-26.989 13.323-31.054 33.591-37.254 4.8-1.473 10.027-3.072 15.729-5.242a2.654 2.654 0 0 1 .949-.256 2.7 2.7 0 0 1 2.412 1.09c.264.352.445.775.51 1.243l11.524 80.532 4.603-59.512-8.488-8.927c-1.029-1.08-.978-2.805.103-3.834a2.717 2.717 0 0 1 3.832.103l9.208 9.674c.592.54.926 1.338.85 2.187l-6.581 85.284a2.655 2.655 0 0 1-.893 1.872 2.67 2.67 0 0 1-2.01.679 2.718 2.718 0 0 1-2.52-2.44l-14.53-101.534c-4.581 1.64-9.008 2.997-13.129 4.252-17.927 5.506-29.708 9.108-29.708 32.083zm23.304 20.608a2.712 2.712 0 0 1-2.727 2.727 2.728 2.728 0 0 1-2.726-2.727v-57.733a2.728 2.728 0 0 1 2.726-2.727 2.712 2.712 0 0 1 2.727 2.727zm99.077 0a2.728 2.728 0 0 1-2.726 2.727 2.728 2.728 0 0 1-2.727-2.727v-57.733a2.728 2.728 0 0 1 2.727-2.727 2.728 2.728 0 0 1 2.726 2.727zm-81.021-49.886c1.492 0 2.7 1.235 2.7 2.727a2.706 2.706 0 0 1-2.7 2.727h-10.211a2.712 2.712 0 0 1-2.727-2.727 2.728 2.728 0 0 1 2.727-2.727zm32.64-151.717a2.728 2.728 0 0 1-2.727 2.727 33.162 33.162 0 0 0-23.508 9.725c-5.994 6.02-9.723 14.33-9.723 23.515 0 10.24 4.501 23.464 11.652 33.472 5.864 8.207 13.452 14.15 21.58 14.15 8.153 0 15.715-5.943 21.605-14.15 7.15-10.008 11.652-23.232 11.652-33.472a2.706 2.706 0 0 1 2.726-2.701c1.492 0 2.727 1.21 2.727 2.701 0 11.27-4.913 25.728-12.706 36.637-6.817 9.52-15.896 16.44-26.005 16.44-10.108 0-19.187-6.92-26.003-16.44-7.768-10.909-12.68-25.368-12.68-36.637 0-10.677 4.346-20.35 11.342-27.348 6.996-7.024 16.667-11.346 27.341-11.346a2.712 2.712 0 0 1 2.727 2.727z"/></g></g></svg>