<svg xmlns="http://www.w3.org/2000/svg" width="280" height="319" viewBox="0 0 280 319"><g><g><path fill="#232257" d="M147.723 2.166l62.27 35.994.024-.024 62.438 36.088a15.15 15.15 0 0 1 7.521 13.087H280v144.402c0 5.983-3.475 11.155-8.498 13.61l-61.485 35.565c-.285.143-.57.31-.856.453l-61.652 35.635a15.028 15.028 0 0 1-15.21-.119l-62.27-36.017-.025.048-62.436-36.113C2.735 241.986.046 236.91.046 231.713h-.048V87.31c0-6.007 3.475-11.18 8.522-13.635l61.484-35.54c.286-.167.548-.31.834-.453l61.675-35.66c4.88-2.813 10.688-2.574 15.21.143z"/></g><g><path fill="#fff" d="M41.877 188.29c.404.109.754.32 1.03.6.413.41.671.975.671 1.6v20.343l28.572 7.533V190.19l-9-2.374c-1.206-.302-1.938-1.552-1.615-2.781.323-1.207 1.572-1.94 2.777-1.617l10.458 2.765c.84.13 1.52.711 1.794 1.492.103.29.149.605.129.925v28.811l22.672-12.773V172.6L43.578 157.94v14.808c0 1.25-1.033 2.264-2.282 2.264a2.266 2.266 0 0 1-2.282-2.264v-17.761a2.271 2.271 0 0 1 2.282-2.285c.258 0 .495.043.732.13l60.2 15.82c1.012.26 1.68 1.186 1.68 2.2h.021v33.771l72.818 19.147v-49.815l-151.19-39.748v49.793zm-19.162-.323a2.272 2.272 0 0 1-1.701-2.198v-54.387a2.3 2.3 0 0 1 1.162-2.132l72.689-40.955a2.268 2.268 0 0 1 1.787-.194l93.875 24.703c1.206.301 1.938 1.552 1.615 2.78-.323 1.207-1.572 1.94-2.778 1.617L96.286 92.714l-66.977 37.754 149.417 39.311 71.765-40.464a2.391 2.391 0 0 1 1.227-.345 2.271 2.271 0 0 1 2.282 2.285v54.514a2.285 2.285 0 0 1-2.282 2.285c-1.249 0-2.26-1.035-2.26-2.285v-50.634l-68.146 38.403v49.298l40.37-22.755a2.292 2.292 0 0 1 3.1.884 2.272 2.272 0 0 1-.882 3.083l-43.598 24.573a2.266 2.266 0 0 1-2.056.245l-76.79-20.19L75.66 223.22a2.24 2.24 0 0 1-1.81.293l-33.136-8.708a2.29 2.29 0 0 1-1.7-2.22V192.26zm138.896-3.707a2.321 2.321 0 0 1 1.7 2.22v7.588a2.285 2.285 0 0 1-2.281 2.284c-.259 0-.496-.043-.733-.129l-16.299-4.268a2.322 2.322 0 0 1-1.7-2.22v-7.588a2.285 2.285 0 0 1 2.282-2.285c.258 0 .517.044.732.13zm-2.864 3.966l-11.885-3.126v2.889l11.885 3.125zm-25.837-11.51a2.29 2.29 0 0 1 1.701 2.198v7.61a2.271 2.271 0 0 1-2.282 2.284c-.259 0-.495-.043-.732-.13l-16.278-4.267a2.297 2.297 0 0 1-1.7-2.22v-7.588a2.266 2.266 0 0 1 3.014-2.156zm-2.842 3.966l-11.907-3.126v2.889l11.907 3.125z"/></g></g></svg>